<svg id="Layer_1" data-name="Layer 1" xmlns="http://www.w3.org/2000/svg" width="463.85" height="481.77" viewBox="0 0 463.85 481.77">
  <defs>
    <style>
      .cls-1 {
        fill: #224467;
      }

      .cls-2 {
        fill: #eb8f56;
      }

      .cls-3 {
        fill: #9c9a9a;
      }
    </style>
  </defs>
  <title>acculynx-logo-freelogovectors.net</title>
  <g>
    <path class="cls-1" d="M214.19,490.24a16.22,16.22,0,0,1-14.33-16.14c-.09-10.46,0-20.92,0-31.37h13.26c0,10.75-.15,21.52.08,32.28a5,5,0,0,0,3.41,4.62c2.4.77,5.92.31,7.09-2.2a12,12,0,0,0,.72-3c0-10.56,0-21.12,0-31.67H237.6c0,10.56.1,21.11,0,31.67a16,16,0,0,1-6.44,12.73,19,19,0,0,1-10,3.36A34.56,34.56,0,0,1,214.19,490.24Z" transform="translate(-18.08 -9.11)"/>
    <path class="cls-1" d="M53.75,490.09c-.93-2.62-1.92-5.21-2.86-7.81a5.5,5.5,0,0,0-.28-.6c-.06-.13-.29,0-.43,0h-15l-3.05,8.38-14,0,18.49-47.44H49.1q9.12,23.13,18.17,46.3c.15.38.28.76.44,1.14Zm-7.51-19.18h.47l-3.88-10.43-3.77,10.43Z" transform="translate(-18.08 -9.11)"/>
    <path class="cls-1" d="M156.28,490.62c-5.65-.89-10.23-4.57-13.31-9.24a27.4,27.4,0,0,1-4.27-13,28.11,28.11,0,0,1,5.42-18.49,19.29,19.29,0,0,1,18.53-7.64c6.3.81,11.43,3.57,14.67,9.15a19.76,19.76,0,0,1,2.3,7.42H166.69a7.4,7.4,0,0,0-4-5.77,5.89,5.89,0,0,0-7.91,2.6c-3,5.34-2.54,14.67-.58,20.31.9,2.6,3.18,4.8,6.07,4.55a6.9,6.9,0,0,0,6.45-6.37h13a18.66,18.66,0,0,1-5.77,11.69C169.17,490.06,162.45,491.56,156.28,490.62Z" transform="translate(-18.08 -9.11)"/>
    <path class="cls-2" d="M323.7,490.39v-17.2q-7.5-15-15-30l-.33-.68h14.38a6.73,6.73,0,0,1,.54,1c2.22,5.38,4.57,10.7,6.82,16.07l.38.79c.08-.16.16-.33.23-.49,2.25-5.25,4.44-10.51,6.67-15.76.23-.54.47-1.07.7-1.6h14.57c-5.09,10.25-10.31,20.44-15.38,30.7v17.2Z" transform="translate(-18.08 -9.11)"/>
    <path class="cls-1" d="M98.68,490.69c-5.69-.7-10.53-4.32-13.63-9a28.2,28.2,0,0,1-4.33-18.49c.61-6,3.46-12.4,8.07-16.38,5.8-5,12.69-5.86,19.9-3.73A17.58,17.58,0,0,1,119.52,452a19.1,19.1,0,0,1,2,6.81h-13a7,7,0,0,0-6.54-6.36c-4.91-.35-6.94,5.56-7.28,9.55-.4,4.61-.35,9.21,1.17,13.65.82,2.38,2.6,4.53,5.2,4.85a6.63,6.63,0,0,0,6.06-2.73,8.75,8.75,0,0,0,1.42-3.64h12.92a18.36,18.36,0,0,1-8.58,13.79A22.21,22.21,0,0,1,98.68,490.69Z" transform="translate(-18.08 -9.11)"/>
    <path class="cls-2" d="M400.74,490.39c-4.81-8.27-9.5-16.61-14.21-24.94v24.94H373.27V442.72H386.1q7,12.24,13.92,24.5c.17.3.23-.06.23-.4v-24.1h13.26v47.67Z" transform="translate(-18.08 -9.11)"/>
    <path class="cls-2" d="M466.46,490.39c-2.41-4.58-4.61-9.26-6.92-13.89l-6.92,13.89H437.18l13.72-24.14c-4.28-7.59-8.52-15.2-12.82-22.77-.18-.32-.34-.65-.5-1h15.27l6.69,13.62,6.68-13.62h15.29c0,.06-.23.51-.32.68q-6.49,11.56-13,23.1l13.76,24.12Z" transform="translate(-18.08 -9.11)"/>
    <path class="cls-3" d="M291.7,367.39a3.4,3.4,0,0,1,.23-.3c3.23-3.89,6.6-7.71,9.55-11.83,10.31-14.44,16.09-31.73,19-49.11a227.27,227.27,0,0,0,3-33.65c.13-6.67-.1-13.35-.37-20,0-.1,0-.2,0-.3,0-.43,0-.92.22-.53,1.63,3.31,3.32,6.59,4.89,9.93a105.12,105.12,0,0,1,8.37,28.19,148.8,148.8,0,0,1,2,20.62,238.08,238.08,0,0,1-.85,25.05,101,101,0,0,1-30.44,24.47c-5,2.68-10.12,5-15.16,7.47C291.83,367.52,291.52,367.63,291.7,367.39Z" transform="translate(-18.08 -9.11)"/>
    <path class="cls-2" d="M295.74,490.24H261.86V442.65h13.26v36.83h21.07v10.76Z" transform="translate(-18.08 -9.11)"/>
    <path class="cls-3" d="M186.6,359.54a109.64,109.64,0,0,1-20.94-14.87,88,88,0,0,1-8.69-9.11.62.62,0,0,1-.14-.31A188.64,188.64,0,0,1,156,311a137.45,137.45,0,0,1,7-40.92c2.17-6.36,5.3-12.24,8.21-18.27.15-.32.31,0,.3.38-.22,7.68-.52,15.35-.3,23,.56,20,3.16,39.44,10.28,58.2a96.34,96.34,0,0,0,11,20.92c3.18,4.57,6.9,8.75,10.44,13,.11.14-.36,0-.52,0C197.1,364.75,191.72,362.39,186.6,359.54Z" transform="translate(-18.08 -9.11)"/>
    <path class="cls-3" d="M275.09,252.52l-.31-.33a76.53,76.53,0,0,0-6.94-7c-5.79-5-13-9-20.61-10.19-8.21,1.38-15.72,5.8-21.83,11.33a69.59,69.59,0,0,0-6.05,6.33l-33-22.16a54.22,54.22,0,0,1,12-22.58,44.14,44.14,0,0,1,12.45-9.3c3.08-1.57,6.39-2.75,9.6-4.05l-1.44-8c-10.82,0-21.58-5.25-27.62-14.4A62.36,62.36,0,0,1,188,166.7c-4.46-8.55-6.83-18-8.33-27.52.18.07.35.12.52.2q29.22,13.8,58.44,27.62c.41.2-.08.27-.54.3l-15.07.95c.07.19.14.38.22.57q6,14.4,12.05,28.8c.1.26.22.51.33.76H258.9l12.62-30.14c-5.07-.32-10.12-.66-15.2-.94-.41,0-.82-.12-.45-.3l59-27.85c-1.48,9.41-3.85,18.72-8.16,27.25a47.26,47.26,0,0,1-3.53,5.76,33.27,33.27,0,0,1-18.34,13.15,42.74,42.74,0,0,1-9.28,1.25l-1.44,8c4.48,1.82,9,3.52,13.14,6.07a45.22,45.22,0,0,1,13,12.48,56.38,56.38,0,0,1,7.9,17.42q-16.26,10.88-32.45,21.82l-.52.32Zm-56.7-13,.36.46c6.8-7.77,16.45-13.44,26.81-14.47v-1.93c-7.81-7.15-15.64-14.3-23.51-21.37-.46-.41-1.09-4.68-1.24-5.54-8.29,5.58-15.76,12.93-16.48,23.4a8.55,8.55,0,0,0,0,1.52.73.73,0,0,0,.19.3Zm57,.07c.12.13.26.24.39.36l.39-.47c4.51-5.75,9.6-11.68,13.81-17.59.48-.67.25-1.22.19-2.12-.44-6.45-3.87-12.35-8.53-16.67-2.49-2.32-5.24-4.35-7.92-6.45l-1,5.24L249,223.56v1.85a3.76,3.76,0,0,0,.68.17C259.89,226.88,268.51,232,275.42,239.57Z" transform="translate(-18.08 -9.11)"/>
    <path class="cls-3" d="M342,329.49c.72-5.67,1.49-11.3,2-17,.49-5,.74-10.1,1-15.16s.14-10.35-.08-15.46a117.73,117.73,0,0,0-6.1-33.95,59,59,0,0,0-3.07-7.28c-2.48-4.78-5.07-9.5-7.61-14.25-.22-.39-.26-.92,0-.58,6.94,7.8,14.32,15.26,20,24.07a72.35,72.35,0,0,1,10.16,23.45,218.37,218.37,0,0,0,16.4-52.29,77.25,77.25,0,0,1-29.89-10.64,63.53,63.53,0,0,1-25.05-30.09,73.81,73.81,0,0,1-4.89-20,82.21,82.21,0,0,1-.38-11.21c.52-17.6,6.54-35,15.54-50a118.71,118.71,0,0,1,6.84-10.21L340.06,91c-8.33,13.71-14,29-14.7,45.11a70.65,70.65,0,0,0,8.81,36.42,85.34,85.34,0,0,0,13.56-33.39,98.54,98.54,0,0,0,1.13-23.64,129.55,129.55,0,0,0-5.47-28.8c-.73-2.42-1.57-4.81-2.34-7.22a49.32,49.32,0,0,1-12.88,8.43c-3,1.35-6.24,2.12-9.09,3.64-6.8,3.6-13.41,13.6-17.1,20.31a62.8,62.8,0,0,0-3.09,6.4,14.82,14.82,0,0,0-4.37-1.65c-6.83-1.47-14.83-1.82-21.83-2.18-5.13-.26-10.32-.43-15.45-.45-8.09,0-16.18-.13-24.26.08a254.57,254.57,0,0,0-31.22,2.21,16.62,16.62,0,0,0-6.11,2,72.94,72.94,0,0,0-7.93-14.3c-3.41-5-7.48-10.08-12.94-12.81-2.13-1.07-5-1.83-7.28-2.77a46.33,46.33,0,0,1-13.95-8.92,148.78,148.78,0,0,0-6.82,26.62,100.89,100.89,0,0,0,.15,33.35,86.69,86.69,0,0,0,13.49,33.1,72.24,72.24,0,0,0,8.57-27.65c1.78-18.48-4.86-38.28-14.47-53.9l3.17-2.1A117.93,117.93,0,0,1,177,128.81a90.86,90.86,0,0,1,3,20,77.9,77.9,0,0,1-4.89,30.62,63.74,63.74,0,0,1-9.7,17A65,65,0,0,1,141.13,215a81.66,81.66,0,0,1-21.33,6.06c3,18.08,8.93,35.62,16.42,52.3,2.81-12.41,9.26-23.68,17.45-33.32,4.19-4.91,8.55-9.7,12.92-14.46.26-.28.18.18,0,.52-4,7.33-8.3,14.55-11.08,22.43a113,113,0,0,0-5.9,33.65,222.21,222.21,0,0,0,.78,28.5c.58,6.27,1.37,12.51,2.2,18.76,0,.19-.17.35-.25.53-3.85-4.31-7.69-8.62-11.19-13.23a182.72,182.72,0,0,1-17.27-27.59,308.4,308.4,0,0,1-21.94-57.59A503.11,503.11,0,0,1,90.39,178c6.66,4.62,13.79,8.57,21.63,10.78A49.46,49.46,0,0,0,147,185.7a166.17,166.17,0,0,1-10.82-44.77A132.73,132.73,0,0,1,148,73.15c-6.24-8.74-8.59-19.54-8.48-30.14a56.17,56.17,0,0,1,1.79-13.64c1.83-6.74,4.48-13.52,6.78-20.14.11-.32.16.1.13.44,0,.1,0,.2,0,.3-.84,6.15-1.85,12.31-2.39,18.49A74.76,74.76,0,0,0,146,40.89a47.4,47.4,0,0,0,4.44,16.68,30.16,30.16,0,0,0,3.08,4.88,179.28,179.28,0,0,1,11.7-18l3.18,2c-3.69,6.69-7,13.59-10.06,20.61A57.66,57.66,0,0,0,167.2,72c10.66,5,22,8.75,32.13,14.85,6,3.63,10.58,7.72,13.8,14h68.29c4.35-8.81,13.21-14.35,21.9-18.33,7.1-3.27,14.38-6.15,21.52-9.37a90.38,90.38,0,0,0,10.61-5.51,8.9,8.9,0,0,0,.79-.58q-4.61-10.52-10.05-20.6l3.17-2a158.4,158.4,0,0,1,11.7,18c6.57-9.27,8.46-20.73,7.8-31.88-.39-6.77-1.61-13.53-2.45-20.27,0-.17.17-.32.25-.47,2.19,6.35,5.09,13.38,6.65,19.83a60.43,60.43,0,0,1-.38,30,44.08,44.08,0,0,1-6.39,13.46,136,136,0,0,1,9,26.25c1,4.41,1.79,8.87,2.37,13.34a138.17,138.17,0,0,1-1.75,43.65,169.07,169.07,0,0,1-8.61,29.32,52.73,52.73,0,0,0,21.5,4.94,54.28,54.28,0,0,0,26.07-7.05c3.1-1.71,6-3.67,9-5.61-4.91,30.95-12.4,61.44-24,90.57a209.71,209.71,0,0,1-26.72,48.2c-3.5,4.65-7.37,9-11.29,13.33C342,330.24,341.94,329.69,342,329.49Z" transform="translate(-18.08 -9.11)"/>
    <path class="cls-3" d="M284.82,306.45H209.29a59.36,59.36,0,0,0,.88-7.27,63.73,63.73,0,0,0-6.67-29.41A110.6,110.6,0,0,0,194,253.71c-2.46-3.48-5-6.89-7.55-10.31-.2-.28.14-.38.42-.19,3.57,2.55,7.46,4.7,10.92,7.43,11.28,8.89,18.86,24.07,23.55,37.4h51.82a113.72,113.72,0,0,1,11.19-23.42,57,57,0,0,1,12-13.66c3.82-3.08,8.14-5.57,12.24-8.25-4.35,5.89-8.83,11.7-12.62,18-5.6,9.25-10,19.49-11.28,30.31a49.26,49.26,0,0,0-.32,7.58,69.83,69.83,0,0,0,.88,7.88Z" transform="translate(-18.08 -9.11)"/>
  </g>
</svg>
