<?xml version="1.0" encoding="UTF-8"?><svg id="Layer_1" xmlns="http://www.w3.org/2000/svg" viewBox="0 0 1581.01 381.57"><defs><style>.cls-1{fill:#0ae8f0;}.cls-2{fill:#006bff;}</style></defs><g id="Layer_2"><g id="Layer_1-2"><g id="Wordmark"><path class="cls-2" d="M938.47,150.59c24.52,0,47.74,15,52.64,47.41h-109.2c4.57-28.44,25.83-47.41,56.56-47.41M987.62,245.95c-8.34,13-24.46,23-46.53,23-30.41,0-53.63-16.67-59.18-46.1h137c.66-4.22,1-8.48,1-12.75,0-45.77-32-86.32-81.42-86.32s-85.66,37.6-85.66,86,35,86,87.62,86c32.7,0,57.55-14.72,71.93-37l-24.76-12.83Z"/><rect class="cls-2" x="810.93" y="52.83" width="28.44" height="238.69"/><path class="cls-2" d="M1178.16,191.14v100.37h-28.45v-98.74c0-26.81-15.36-41.85-40.54-41.85s-47.41,15.37-47.41,53.95v86.64h-28.45v-163.46h28.45v23.54c12.1-19.29,30.08-27.79,53-27.79,38.25,0,63.43,25.5,63.43,67.36"/><path class="cls-2" d="M1335.01,209.77c0-33.35-25.18-58.53-58.2-58.53s-57.87,25.18-57.87,58.53,25.17,58.53,57.87,58.53,58.2-25.18,58.2-58.53M1363.45,52.83v238.69h-28.44v-28.13c-13.08,20-34,32.38-61.8,32.38-45.45,0-82.72-37.61-82.72-86s37.27-86,82.72-86c27.79,0,48.72,12.42,61.8,32.37V52.83h28.44Z"/><rect class="cls-2" x="1386.39" y="52.83" width="28.44" height="238.69"/><path class="cls-2" d="M760.23,209.77c0-33.35-25.17-58.53-58.2-58.53s-57.87,25.18-57.87,58.53,25.18,58.53,57.87,58.53,58.2-25.18,58.2-58.53M788.68,128.05v163.46h-28.45v-28.12c-13.08,20-34,32.38-61.79,32.38-45.45,0-82.73-37.61-82.73-86s37.28-86,82.73-86c27.79,0,48.71,12.42,61.79,32.37v-28.09h28.45Z"/><path class="cls-2" d="M573.52,260.05c-45.87,16.93-96.78-6.54-113.7-52.41-16.93-45.87,6.54-96.78,52.41-113.7,29.52-10.89,62.6-5.3,86.9,14.69,5,4.12,9.52,8.79,13.48,13.92l24.61-18c-39.99-52.28-114.78-62.24-167.06-22.25-52.28,39.99-62.24,114.78-22.25,167.06,39.99,52.28,114.78,62.24,167.06,22.25.18-.14.35-.27.53-.41l-16.38-25.9c-7.65,6.3-16.3,11.29-25.59,14.75"/><path class="cls-2" d="M1552.13,128.05v92.78c0,30-17.45,49-44.09,49s-45.93-19-45.93-49v-92.78h-28.78v90c0,47.16,29.39,77.78,74.71,77.78,39.2,0,45.32-24.8,45.32-25.42v33.38c0,33.07-14.39,51.75-44.4,51.75-22.17.11-40.99-16.23-44-38.2l-25.73,9c7.58,32.4,36.51,55.29,69.78,55.23,46.54,0,72-30.63,72-77.78v-175.74h-28.88Z"/></g><g id="Brand_mark"><path class="cls-2" d="M231.59,223.28c-10.93,9.7-24.58,21.77-49.33,21.77h-14.8c-17.91,0-34.2-6.51-45.86-18.31-11.39-11.53-17.66-27.31-17.66-44.44v-20.25c0-17.13,6.27-32.91,17.66-44.44,11.66-11.8,27.95-18.3,45.86-18.3h14.8c24.78,0,38.4,12.06,49.33,21.76,11.35,10,21.14,18.74,47.25,18.74,3.98,0,7.96-.32,11.89-.95l-.09-.23c-1.56-3.88-3.4-7.65-5.49-11.28l-17.45-30.23c-16.02-27.74-45.61-44.82-77.64-44.82h-34.91c-32.03,0-61.62,17.08-77.64,44.82l-17.45,30.23c-16.01,27.74-16.01,61.91,0,89.65l17.45,30.23c16.02,27.74,45.61,44.82,77.64,44.82h34.91c32.03,0,61.62-17.08,77.64-44.82l17.45-30.18c2.09-3.63,3.93-7.4,5.49-11.28l.09-.22c-3.93-.65-7.91-.99-11.89-1-26.11,0-35.9,8.69-47.25,18.74"/><path class="cls-2" d="M182.26,117.66h-14.8c-27.26,0-45.17,19.47-45.17,44.39v20.25c0,24.92,17.91,44.39,45.17,44.39h14.8c39.72,0,36.6-40.5,96.58-40.5,5.68,0,11.35.52,16.94,1.56,1.82-10.3,1.82-20.85,0-31.15-5.59,1.04-11.26,1.56-16.94,1.56-60,0-56.86-40.5-96.58-40.5"/><path class="cls-2" d="M330.24,202.55c-10.21-7.48-21.99-12.54-34.45-14.81v.3c-1.07,5.97-2.75,11.82-5,17.45,10.29,1.59,20.05,5.61,28.48,11.73,0,.08-.05.18-.08.27-25.03,81.04-111.01,126.44-192.05,101.42C46.1,293.88.69,207.9,25.72,126.86,50.75,45.82,136.73.42,217.77,25.44c48.49,14.97,86.44,52.93,101.42,101.42,0,.09.05.19.08.27-8.43,6.12-18.19,10.13-28.48,11.72,2.25,5.64,3.92,11.49,5,17.47,0,.09,0,.19,0,.28,12.46-2.26,24.24-7.32,34.45-14.8,9.82-7.27,7.92-15.48,6.43-20.34C308.66,30.62,212.31-20.32,121.46,7.69,30.62,35.7-20.32,132.05,7.69,222.89c28.01,90.84,124.36,141.78,215.2,113.77,54.41-16.77,97-59.37,113.77-113.77,1.49-4.86,3.39-13.07-6.43-20.34"/><path class="cls-1" d="M290.73,138.85c-3.93.65-7.91.99-11.89,1-26.11,0-35.9-8.69-47.24-18.74-10.94-9.7-24.56-21.77-49.34-21.77h-14.8c-17.92,0-34.2,6.51-45.86,18.31-11.39,11.53-17.66,27.31-17.66,44.44v20.25c0,17.13,6.27,32.91,17.66,44.44,11.66,11.8,27.94,18.3,45.86,18.3h14.8c24.78,0,38.4-12.06,49.34-21.76,11.34-10,21.13-18.74,47.24-18.74,3.98,0,7.96.32,11.89.95,2.26-5.63,3.93-11.48,5-17.45,0-.1,0-.2,0-.3-5.59-1.04-11.26-1.55-16.94-1.55-60,0-56.86,40.51-96.58,40.51h-14.8c-27.26,0-45.17-19.48-45.17-44.4v-20.29c0-24.92,17.91-44.39,45.17-44.39h14.8c39.72,0,36.6,40.49,96.58,40.49,5.68,0,11.35-.51,16.94-1.55v-.28c-1.08-5.98-2.75-11.83-5-17.47"/><path class="cls-1" d="M290.73,138.85c-3.93.65-7.91.99-11.89,1-26.11,0-35.9-8.69-47.24-18.74-10.94-9.7-24.56-21.77-49.34-21.77h-14.8c-17.92,0-34.2,6.51-45.86,18.31-11.39,11.53-17.66,27.31-17.66,44.44v20.25c0,17.13,6.27,32.91,17.66,44.44,11.66,11.8,27.94,18.3,45.86,18.3h14.8c24.78,0,38.4-12.06,49.34-21.76,11.34-10,21.13-18.74,47.24-18.74,3.98,0,7.96.32,11.89.95,2.26-5.63,3.93-11.48,5-17.45,0-.1,0-.2,0-.3-5.59-1.04-11.26-1.55-16.94-1.55-60,0-56.86,40.51-96.58,40.51h-14.8c-27.26,0-45.17-19.48-45.17-44.4v-20.29c0-24.92,17.91-44.39,45.17-44.39h14.8c39.72,0,36.6,40.49,96.58,40.49,5.68,0,11.35-.51,16.94-1.55v-.28c-1.08-5.98-2.75-11.83-5-17.47"/></g></g></g></svg>